# xmcd
#
# Track frame offsets: 
#        150
#        3919
#        30919
#        53325
#        96600
#        111658
#        134329
#        149419
#        184465
#        198075
#        223514
#        245975
#        264960
#        277380
#        309760
#
# Disc length: 4331 seconds
#
# Revision: 0
# Processed by: cddbd v1.5.2PL0 Copyright (c) Steve Scherf et al.
# Submitted via: ExactAudioCopy v0.99pb4
#
DISCID=e010e90f
DTITLE=A.Belov, A.Belov, A.Belov - The Goog Buy
DYEAR=1997
DGENRE=Blues
TTITLE0=Introduction of the band
TTITLE1=Freeway Jam (Middleton)
TTITLE2=I Cant Hold Out (James)
TTITLE3=Ramblin On My Mind (Johnson)
TTITLE4=Blue Suede Shoes #1 (Perkins)
TTITLE5=Wonderful Tonight (Clapton)
TTITLE6=Good Golly Miss Molly (Blackwell-Marascalco)
TTITLE7=A-Moll Blues (Jacobs-Belov)
TTITLE8=Tutti-Frutti (Penniman)
TTITLE9=Aint Nobodys Business If I Do (Grainger-Robbins)
TTITLE10=Before You Accuse Me (McDaniel)
TTITLE11=Whole Lotta Shakin Goin On (Williams-David)
TTITLE12=Boney-Maroney (Williams)
TTITLE13=Blue Suede Shoes #2 (Perkins)
TTITLE14=Angel (Hendrix)
EXTD=Alexey "White" Belov - Guitar, Vocal\nAlexey "Gorky Park" Belov -
EXTD=Guitar, Back-Vocal (lead vocal in 5 track]\nAlexey "Junior" Belo
EXTD=v - Keyboards, Back-Vocal\nRecorded live at the ARBAT BLUES CLUB,
EXTD=Moscow, 21.06.1996\n\n
EXTT0=
EXTT1=
EXTT2=
EXTT3=
EXTT4=
EXTT5=
EXTT6=
EXTT7=
EXTT8=
EXTT9=
EXTT10=
EXTT11=
EXTT12=
EXTT13=
EXTT14=
PLAYORDER=
